<svg version="1.1" id="Layer_1" xmlns="http://www.w3.org/2000/svg" xmlns:xlink="http://www.w3.org/1999/xlink" x="0px" y="0px" width="100%" viewBox="0 0 1088 960" enable-background="new 0 0 1088 960" xml:space="preserve">

<path fill="#89BA8B" opacity="1.000000" stroke="none" d="
M729.010681,867.987915 
	C727.262573,873.248718 721.936157,873.229919 718.071106,874.749878 
	C695.162720,883.759583 671.812866,891.556335 647.684998,896.589722 
	C623.897888,901.552002 599.901855,905.191772 575.511169,905.593750 
	C564.069885,905.782166 552.617065,906.895142 541.200867,906.549927 
	C528.243103,906.158264 515.280457,904.948486 502.394287,903.453613 
	C490.660583,902.092407 478.883575,900.501038 467.382111,897.883911 
	C450.373596,894.013733 433.374634,889.823425 416.780609,884.495544 
	C402.736389,879.986328 388.955170,874.335510 375.630676,867.986938 
	C358.006104,859.589661 340.729401,850.396729 323.685394,840.862427 
	C300.339539,827.803040 280.377747,810.253845 260.827118,792.165649 
	C237.796875,770.857971 216.698425,747.854675 198.535339,722.283813 
	C192.204224,713.370605 186.822479,703.744629 181.466019,694.187012 
	C174.642136,682.011230 167.494858,669.919556 161.917603,657.165955 
	C154.332230,639.820557 147.183044,622.169922 141.544876,604.119690 
	C135.903641,586.059570 131.283691,567.524109 128.184601,548.869995 
	C125.057823,530.049255 124.330238,510.828369 122.631630,491.775635 
	C122.536522,490.708710 123.170937,489.576752 123.945267,488.236877 
	C124.592484,488.015472 124.760239,488.032257 124.921402,488.508545 
	C125.049759,493.287811 125.184692,497.607544 125.259598,502.300232 
	C125.487434,504.108948 125.775307,505.544678 126.078796,507.308411 
	C126.135025,508.072296 126.175644,508.508209 126.150604,509.390625 
	C126.731476,515.562988 127.377991,521.288879 128.060440,527.330444 
	C128.158356,528.065308 128.220337,528.484436 128.211365,529.297974 
	C128.442703,531.460327 128.744995,533.228333 129.048340,535.389832 
	C129.168198,536.824524 129.286987,537.865601 129.344742,539.257324 
	C129.521851,540.739990 129.759979,541.872192 130.035156,543.323303 
	C130.141830,544.064697 130.211426,544.487183 130.229691,545.328613 
	C130.326340,547.064880 130.332275,548.416809 130.643753,549.694275 
	C134.693726,566.304382 138.504578,582.979614 142.932358,599.489136 
	C150.506180,627.729065 162.788895,654.099487 176.179733,679.945068 
	C179.813385,686.958435 184.700073,693.322571 189.005524,699.993408 
	C188.999390,700.002075 189.017975,699.991089 189.091202,700.341248 
	C192.934097,707.138123 196.118500,714.025879 200.581848,719.949951 
	C214.669037,738.647583 228.707306,757.430725 245.745178,773.663208 
	C251.485352,779.132019 257.252136,784.572876 263.156067,790.197754 
	C263.513153,790.589844 263.737335,790.792603 264.147156,791.268250 
	C271.477905,798.022400 278.101562,805.241821 285.910797,810.793823 
	C303.088226,823.006104 320.642059,834.727417 338.451080,846.003357 
	C362.461365,861.205688 388.470490,872.462463 415.313751,881.467651 
	C471.064972,900.170349 528.371216,907.537720 587.103516,903.017517 
	C629.069824,899.787720 669.647278,890.492432 708.885803,875.272583 
	C715.535522,872.693298 722.299500,870.408691 729.010681,867.987915 
z" data-index="1" style="visibility: hidden;"></path>

<path fill="#89BA8B" opacity="1.000000" stroke="none" d="
M568.903198,45.008278 
	C577.008911,45.013226 585.239441,44.108410 593.196045,45.200123 
	C613.941589,48.046577 634.798401,50.751896 655.182861,55.393265 
	C681.628723,61.414776 707.382935,69.849228 732.125549,81.439316 
	C751.898865,90.701653 771.103027,100.838257 789.310791,112.793159 
	C809.903687,126.314034 829.578796,141.007233 847.548401,158.035400 
	C863.885803,173.516968 879.267822,189.795013 893.433044,207.241684 
	C897.514587,212.268616 901.331177,217.540863 904.913269,222.936966 
	C913.066833,235.219803 921.713135,247.254227 928.836304,260.121918 
	C937.184875,275.203430 943.926025,291.165344 951.736938,306.556335 
	C961.002441,324.813507 966.583130,344.358551 971.611084,363.991058 
	C975.648315,379.755188 977.966431,395.958893 981.081116,411.960938 
	C981.429382,413.750244 981.997009,415.496857 982.621643,418.052795 
	C983.078918,422.268066 983.377441,425.693848 983.698486,429.532959 
	C984.083496,432.335785 984.445923,434.725220 984.789368,437.575531 
	C984.530823,444.353973 984.291138,450.671509 983.868896,456.627014 
	C982.951782,447.816162 982.357056,439.352448 981.456543,430.921417 
	C978.708862,405.196564 973.785217,379.930359 966.607544,355.024567 
	C959.288269,329.627594 949.398804,305.305939 937.688354,281.722778 
	C926.497620,259.186249 913.453491,237.747711 898.073730,217.728699 
	C876.380676,189.492218 852.433167,163.467621 824.437744,141.373474 
	C814.926636,133.867233 804.863220,127.060822 795.026123,119.960770 
	C795.000000,119.986923 795.052429,119.942467 794.871216,119.661858 
	C791.777527,117.615524 788.865051,115.849808 785.966064,114.060318 
	C785.979675,114.036552 785.929626,114.058609 785.772827,113.792603 
	C784.758179,112.997574 783.900452,112.468544 782.814941,111.769867 
	C782.069702,111.370003 781.552246,111.139793 780.795532,110.677460 
	C757.951538,95.226181 733.413818,83.678719 708.090088,74.038200 
	C675.539001,61.646309 642.004028,52.589394 607.207397,48.988575 
	C596.150940,47.844433 585.056702,47.064621 573.564880,46.088539 
	C571.763123,46.042824 570.376282,46.026657 568.972900,45.759502 
	C568.938660,45.341770 568.920959,45.175022 568.903198,45.008278 
z" data-index="3" style="visibility: hidden;"></path>

<path fill="#89B98E" opacity="1.000000" stroke="none" d="
M732.173218,866.739685 
	C735.031372,864.790833 738.271667,862.859314 741.553589,861.001343 
	C756.563293,852.503845 771.584595,844.026978 786.801147,835.270996 
	C787.000488,834.999268 786.994751,834.990601 787.335693,834.910767 
	C789.829529,833.608704 792.165527,832.623230 794.104553,831.124268 
	C803.863098,823.580261 813.518188,815.902344 823.239868,808.276367 
	C823.270203,808.281372 823.311340,808.235718 823.641113,808.136780 
	C825.827698,806.938965 827.990112,806.154480 829.494507,804.692871 
	C845.372620,789.266663 861.987732,774.488464 876.749512,758.049805 
	C898.587341,733.731201 917.224060,706.976196 932.570251,677.943726 
	C946.555664,651.485535 958.174072,624.162598 966.284912,595.343079 
	C968.026855,589.153503 970.324402,583.120239 972.365967,577.014954 
	C972.375122,578.605591 972.665100,580.254028 972.351746,581.778320 
	C966.823792,608.666016 956.385254,633.869934 945.488831,658.878967 
	C942.578674,665.558044 938.589661,671.778076 934.954346,678.127747 
	C927.786011,690.648682 921.181152,703.561523 913.112000,715.478699 
	C904.458191,728.259399 894.699341,740.337463 884.873352,752.269653 
	C863.192078,778.598267 838.561401,801.956665 811.085632,822.132446 
	C798.093567,831.672546 784.442383,840.400574 770.586243,848.650757 
	C759.924438,854.998901 748.493958,860.062134 737.354431,865.594421 
	C735.917480,866.308044 734.175293,866.407104 732.173218,866.739685 
z" data-index="5" style="visibility: hidden;"></path>

<path fill="#A6CFC2" opacity="1.000000" stroke="none" d="
M1039.308105,892.609619 
	C1044.915161,897.112488 1050.305542,901.326599 1055.948853,905.738525 
	C1045.372314,909.467407 1037.131836,916.621704 1033.152710,928.871216 
	C1028.699219,917.263000 1021.212708,909.201660 1009.165344,905.093750 
	C1020.775391,900.646423 1028.886719,893.195862 1032.523804,880.286926 
	C1035.191895,885.175659 1037.141602,888.748291 1039.308105,892.609619 
z" data-index="7" style="visibility: hidden;"></path>

<path fill="#89BA8B" opacity="1.000000" stroke="none" d="
M984.282227,489.749451 
	C984.046509,499.305206 983.931519,508.866119 983.522705,518.414429 
	C983.325134,523.027100 982.575012,527.616028 982.015564,532.630615 
	C980.913147,539.755310 979.981079,546.485229 978.764160,553.163208 
	C978.366150,555.347351 977.227051,557.396423 976.130005,559.702393 
	C975.816467,557.858398 975.799561,555.819092 975.771301,553.018921 
	C975.799866,551.823547 975.839844,551.389221 976.141968,550.688232 
	C976.906799,549.041260 977.715698,547.693298 977.865479,546.275696 
	C979.654358,529.348816 981.324890,512.409546 983.089539,495.480072 
	C983.290771,493.549408 983.875366,491.658691 984.282227,489.749451 
z" data-index="9" style="visibility: hidden; stroke-width: 2px; opacity: 1;"></path>
<path fill="#C0D8A5" opacity="1.000000" stroke="none" d="
M123.857697,474.601257 
	C124.114487,469.682404 124.385742,465.215210 124.985947,460.746155 
	C125.185936,469.845917 125.056961,478.947449 124.927979,488.049011 
	C124.760239,488.032257 124.592484,488.015472 124.172737,487.976227 
	C123.904549,483.653473 123.888351,479.353149 123.857697,474.601257 
z" data-index="10" style="visibility: visible;"></path>
<path fill="#C0D8A5" opacity="1.000000" stroke="none" d="
M568.444824,45.012169 
	C568.920959,45.175022 568.938660,45.341770 568.601440,45.934654 
	C562.155884,46.231800 556.065186,46.102798 549.974548,45.973801 
	C549.974548,45.973801 550.009705,45.498688 550.035156,45.261768 
	C556.035889,45.021919 562.011230,45.018986 568.444824,45.012169 
z" data-index="11" style="visibility: visible;"></path>

<path fill="#E3E4A4" opacity="1.000000" stroke="none" d="
M549.606323,45.967247 
	C556.065186,46.102798 562.155884,46.231800 568.617981,46.185646 
	C570.376282,46.026657 571.763123,46.042824 573.804199,46.363205 
	C584.263550,48.097675 594.096008,49.363228 603.867615,50.994141 
	C621.535950,53.943054 639.446899,56.025238 656.741333,60.472759 
	C676.414001,65.531860 695.660767,72.397842 714.820984,79.239250 
	C725.230408,82.956062 735.256104,87.899948 745.121460,92.942612 
	C753.925964,97.443031 762.170593,103.027596 770.875366,107.740143 
	C773.936523,109.397400 777.630005,109.886894 781.034729,110.909592 
	C781.552246,111.139793 782.069702,111.370003 782.955200,112.051697 
	C784.191956,113.021660 785.060791,113.540131 785.929626,114.058609 
	C785.929626,114.058609 785.979675,114.036552 786.117249,114.353561 
	C789.187378,116.427872 792.119873,118.185173 795.052429,119.942474 
	C795.052429,119.942467 795.000000,119.986923 795.113586,120.293427 
	C803.216614,127.748192 810.434875,136.115219 819.369995,141.768936 
	C834.041565,151.052353 845.721741,163.565048 858.211975,175.104263 
	C867.748352,183.914612 874.654663,195.506073 883.727539,204.897568 
	C902.458191,224.285980 915.394409,247.568802 928.945374,270.406891 
	C935.346924,281.195679 940.529907,292.784027 945.441895,304.359375 
	C950.811646,317.013306 955.832764,329.884033 959.900574,343.002960 
	C964.322266,357.263123 967.844238,371.835327 971.070801,386.423553 
	C974.181458,400.487701 977.710754,414.652374 978.741943,428.939880 
	C980.463379,452.791351 980.515930,476.773315 980.872314,500.706268 
	C980.963196,506.807648 979.465210,512.922363 978.856018,519.046814 
	C977.798767,529.676270 976.865234,540.318176 975.879822,550.954834 
	C975.839844,551.389221 975.799866,551.823547 975.723633,552.583252 
	C974.852112,554.078430 973.601685,555.134521 973.245056,556.435547 
	C969.264954,570.954651 964.829468,585.387024 961.741394,600.099792 
	C959.485718,610.846558 955.489624,620.562622 950.391846,630.163025 
	C947.493530,635.621155 946.889404,642.259583 944.277771,647.916748 
	C940.145813,656.867188 935.300720,665.497375 930.565979,674.158386 
	C924.409363,685.420044 918.283569,696.709290 911.720215,707.734070 
	C907.752502,714.398865 903.426758,720.954895 898.484619,726.915283 
	C884.918213,743.277161 871.388550,759.712280 856.968628,775.308838 
	C847.439331,785.615662 836.382690,794.508179 826.056641,804.084412 
	C825.004456,805.060120 824.274109,806.382751 823.352905,807.890076 
	C823.311340,808.235718 823.270203,808.281372 822.885742,808.321167 
	C821.188782,809.031738 819.778748,809.562317 818.579407,810.395935 
	C810.511414,816.004211 802.386353,821.540100 794.504395,827.401489 
	C791.681152,829.500916 789.479858,832.436584 786.994751,834.990601 
	C786.994751,834.990601 787.000488,834.999268 786.995117,834.996460 
	C780.144165,835.669922 774.551636,838.546509 769.186035,843.034668 
	C764.056885,847.325134 757.853210,850.443726 751.848999,853.549927 
	C742.014160,858.637817 731.991821,863.369690 721.969727,868.084229 
	C719.749695,869.128540 717.166260,869.370422 714.809753,870.159668 
	C699.545349,875.272644 684.403748,880.781189 669.019287,885.499390 
	C646.284729,892.471802 623.068359,897.455322 599.294434,899.015747 
	C582.045410,900.147949 564.747253,900.655518 547.462097,901.080505 
	C528.033081,901.558167 508.761322,899.756226 489.548981,896.745728 
	C464.040344,892.748474 438.826965,887.319336 414.486603,878.869751 
	C397.760834,873.063477 381.644989,865.372253 365.577942,857.838074 
	C353.491364,852.170471 341.885773,845.468567 330.133514,839.102600 
	C327.397491,837.620483 324.860565,835.732422 322.362091,833.857849 
	C316.190247,829.227112 310.149323,824.420959 303.946686,819.832764 
	C300.094543,816.983276 295.885620,814.604736 292.115051,811.658813 
	C284.774231,805.923279 277.676758,799.877075 270.366364,794.101440 
	C268.712952,792.795044 266.600922,792.069153 264.338928,791.026611 
	C263.737335,790.792603 263.513153,790.589844 263.106018,789.843750 
	C261.733948,787.550720 260.783569,785.574524 259.353058,784.048340 
	C248.504517,772.473938 237.330444,761.194641 226.760330,749.374084 
	C222.405884,744.504578 219.456390,738.405884 215.558716,733.093079 
	C211.678177,727.803650 207.423431,722.787842 203.308319,717.671692 
	C198.558853,711.766907 193.782608,705.883667 189.017975,699.991089 
	C189.017975,699.991089 188.999390,700.002075 188.982971,699.617554 
	C186.282486,693.942322 183.594330,688.653564 180.915298,683.360291 
	C176.133621,673.912476 171.078384,664.589966 166.663956,654.973450 
	C162.870407,646.709534 159.782974,638.119629 156.436157,629.652954 
	C153.522964,622.283264 150.443192,614.966370 147.888092,607.472351 
	C145.865952,601.541565 144.482605,595.389404 142.896622,589.314453 
	C140.527878,580.241089 138.366898,571.111145 135.853333,562.078796 
	C134.241669,556.287354 132.154846,550.628113 130.281021,544.909607 
	C130.211426,544.487183 130.141830,544.064697 130.179321,543.062256 
	C129.992859,541.290405 129.699326,540.098572 129.405777,538.906738 
	C129.286987,537.865601 129.168198,536.824524 129.202423,535.079468 
	C128.997726,532.551575 128.640030,530.727600 128.282318,528.903564 
	C128.220337,528.484436 128.158356,528.065308 128.223907,526.965576 
	C127.639725,520.504639 126.927994,514.724365 126.216263,508.944122 
	C126.175644,508.508209 126.135025,508.072296 126.227638,507.021973 
	C126.013786,504.914124 125.666710,503.420685 125.319641,501.927246 
	C125.184692,497.607544 125.049759,493.287811 124.921402,488.508545 
	C125.056961,478.947449 125.185936,469.845917 125.143364,460.369690 
	C125.064606,456.977997 125.157402,453.960938 125.532059,450.267212 
	C125.891869,447.413605 125.969810,445.236694 126.047752,443.059784 
	C126.073898,442.298553 126.100044,441.537354 126.424225,440.160828 
	C128.451355,431.510986 130.446915,423.522614 131.850494,415.431549 
	C134.288834,401.375702 135.981430,387.181885 138.723999,373.190430 
	C140.483887,364.212158 143.294098,355.404755 146.131897,346.682922 
	C148.799454,338.484283 151.852554,330.384735 155.213394,322.443634 
	C161.464767,307.672668 168.029404,293.033600 174.554977,278.380280 
	C175.492584,276.274872 177.216705,274.508881 178.080124,272.383972 
	C179.213135,269.595612 179.853058,266.606873 180.705063,263.704315 
	C180.705063,263.704315 180.813934,263.327606 181.197617,263.009460 
	C182.479446,261.731323 183.509323,260.863220 184.254257,259.796204 
	C188.902878,253.137756 193.486206,246.433731 198.094254,239.746933 
	C204.365845,230.646194 210.127396,221.134644 217.038101,212.548111 
	C226.513153,200.775406 236.753052,189.607788 246.881638,178.376068 
	C251.745834,172.982101 257.011536,167.935883 262.282318,162.928909 
	C264.903351,160.439056 268.035522,158.496567 270.779236,156.124573 
	C276.424164,151.244370 281.599487,145.739151 287.615082,141.385040 
	C304.938721,128.846161 322.566498,116.726463 340.139099,104.534782 
	C341.425262,103.642456 343.276245,103.609985 344.778198,102.973686 
	C348.194580,101.526321 351.658905,100.138138 354.905640,98.363464 
	C357.060638,97.185547 358.673279,94.952049 360.871948,93.928093 
	C372.753815,88.394585 384.579193,82.680847 396.742859,77.828529 
	C408.000397,73.337692 419.573517,69.575630 431.161072,65.988159 
	C451.022186,59.839237 470.862579,53.381992 492.068268,53.865017 
	C493.545166,53.898659 495.078918,53.661366 496.506897,53.264519 
	C506.875793,50.382824 517.434753,49.622272 528.157166,49.870636 
	C532.785156,49.977837 537.465393,49.454559 542.054810,48.768578 
	C543.809448,48.506302 545.376526,46.989136 547.029053,46.043819 
	C547.765442,46.016106 548.501770,45.988403 549.606323,45.967247 
M518.288025,838.793274 
	C520.907043,839.233337 523.520630,840.014526 526.146057,840.056885 
	C540.777649,840.292969 555.427612,840.834045 570.042175,840.364502 
	C597.898254,839.469666 625.285400,835.512207 652.309998,828.191711 
	C677.203064,821.448669 701.156738,812.353882 723.959961,800.705811 
	C740.786133,792.110901 756.800537,781.661011 772.285950,770.770996 
	C794.390137,755.226135 814.876160,737.574097 832.341736,716.812012 
	C843.260925,703.831970 854.287292,690.798218 863.744019,676.763306 
	C880.902893,651.297424 894.607666,623.918457 905.308350,595.050537 
	C909.253113,584.408447 907.729004,576.547424 897.551331,571.396790 
	C886.770996,565.941101 875.482788,561.119629 863.931030,557.626038 
	C827.250000,546.532593 789.272644,542.099365 751.371643,537.912903 
	C691.699097,531.321350 631.748108,528.766907 571.739807,529.067871 
	C524.599487,529.304260 477.441772,530.306885 430.337280,532.138855 
	C391.389496,533.653564 352.585907,537.518250 314.017883,543.568115 
	C286.704559,547.852661 259.386078,551.792969 233.136993,561.054932 
	C223.503525,564.454102 213.976837,567.780762 205.895218,574.258972 
	C200.385696,578.675354 198.468369,585.134888 201.256027,591.655518 
	C207.727234,606.792236 214.137405,621.964111 221.044678,636.903320 
	C234.506119,666.017944 253.470200,691.513611 274.350983,715.596008 
	C295.949097,740.505737 320.824036,761.914124 348.473175,779.725037 
	C364.618866,790.125732 381.867340,798.948730 399.121124,807.465820 
	C431.341827,823.371277 465.762299,832.350342 501.171936,837.705383 
	C505.060303,838.293457 509.073914,838.053467 513.810059,838.292725 
	C515.119751,838.311340 516.429443,838.329895 518.288025,838.793274 
z" data-index="13" style="visibility: visible;"></path>

<path fill="#C0D8A5" opacity="1.000000" stroke="none" d="
M189.091202,700.341248 
	C193.782608,705.883667 198.558853,711.766907 203.308319,717.671692 
	C207.423431,722.787842 211.678177,727.803650 215.558716,733.093079 
	C219.456390,738.405884 222.405884,744.504578 226.760330,749.374084 
	C237.330444,761.194641 248.504517,772.473938 259.353058,784.048340 
	C260.783569,785.574524 261.733948,787.550720 262.956726,789.672546 
	C257.252136,784.572876 251.485352,779.132019 245.745178,773.663208 
	C228.707306,757.430725 214.669037,738.647583 200.581848,719.949951 
	C196.118500,714.025879 192.934097,707.138123 189.091202,700.341248 
z" data-index="15" style="visibility: hidden;"></path>
<path fill="#C0D8A5" opacity="1.000000" stroke="none" d="
M126.150604,509.390625 
	C126.927994,514.724365 127.639725,520.504639 128.187988,526.649780 
	C127.377991,521.288879 126.731476,515.562988 126.150604,509.390625 
z" data-index="16"></path>
<path fill="#C0D8A5" opacity="1.000000" stroke="none" d="
M128.211365,529.297974 
	C128.640030,530.727600 128.997726,532.551575 129.201355,534.685913 
	C128.744995,533.228333 128.442703,531.460327 128.211365,529.297974 
z" data-index="17"></path>
<path fill="#C0D8A5" opacity="1.000000" stroke="none" d="
M125.259598,502.300232 
	C125.666710,503.420685 126.013786,504.914124 126.212021,506.693970 
	C125.775307,505.544678 125.487434,504.108948 125.259598,502.300232 
z" data-index="18"></path>
<path fill="#C0D8A5" opacity="1.000000" stroke="none" d="
M129.344757,539.257324 
	C129.699326,540.098572 129.992859,541.290405 130.142242,542.743286 
	C129.759979,541.872192 129.521851,540.739990 129.344757,539.257324 
z" data-index="19"></path>

<path fill="#C0D8A5" opacity="1.000000" stroke="none" d="
M180.434189,263.899902 
	C179.853058,266.606873 179.213135,269.595612 178.080124,272.383972 
	C177.216705,274.508881 175.492584,276.274872 174.554977,278.380280 
	C168.029404,293.033600 161.464767,307.672668 155.213394,322.443634 
	C151.852554,330.384735 148.799454,338.484283 146.131897,346.682922 
	C143.294098,355.404755 140.483887,364.212158 138.723999,373.190430 
	C135.981430,387.181885 134.288834,401.375702 131.850494,415.431549 
	C130.446915,423.522614 128.451355,431.510986 126.457489,439.781372 
	C127.311661,428.936127 128.007782,417.793030 129.623337,406.784882 
	C136.315048,361.188324 151.588654,318.372345 172.356537,277.408234 
	C174.678360,272.828461 177.547821,268.526337 180.434189,263.899902 
z" data-index="21" style="visibility: hidden;"></path>
<path fill="#C0D8A5" opacity="1.000000" stroke="none" d="
M125.866684,443.399292 
	C125.969810,445.236694 125.891869,447.413605 125.580078,449.818237 
	C125.459366,447.943573 125.572495,445.841187 125.866684,443.399292 
z" data-index="22" style="visibility: visible;"></path>

<path fill="#C0D8A5" opacity="1.000000" stroke="none" d="
M780.795532,110.677460 
	C777.630005,109.886894 773.936523,109.397400 770.875366,107.740143 
	C762.170593,103.027596 753.925964,97.443031 745.121460,92.942612 
	C735.256104,87.899948 725.230408,82.956062 714.820984,79.239250 
	C695.660767,72.397842 676.414001,65.531860 656.741333,60.472759 
	C639.446899,56.025238 621.535950,53.943054 603.867615,50.994141 
	C594.096008,49.363228 584.263550,48.097675 574.219116,46.392754 
	C585.056702,47.064621 596.150940,47.844433 607.207397,48.988575 
	C642.004028,52.589394 675.539001,61.646309 708.090088,74.038200 
	C733.413818,83.678719 757.951538,95.226181 780.795532,110.677460 
z" data-index="24" style="visibility: hidden;"></path>
<path fill="#C0D8A5" opacity="1.000000" stroke="none" d="
M794.871216,119.661865 
	C792.119873,118.185173 789.187378,116.427872 786.103638,114.377319 
	C788.865051,115.849808 791.777527,117.615524 794.871216,119.661865 
z" data-index="25" style="visibility: visible;"></path>

<path fill="#C0D8A5" opacity="1.000000" stroke="none" d="
M785.772827,113.792603 
	C785.060791,113.540131 784.191956,113.021660 783.182861,112.221359 
	C783.900452,112.468544 784.758179,112.997574 785.772827,113.792603 
z" data-index="27" style="visibility: visible;"></path>
<path fill="#C0D8A5" opacity="1.000000" stroke="none" d="
M787.335693,834.910767 
	C789.479858,832.436584 791.681152,829.500916 794.504395,827.401489 
	C802.386353,821.540100 810.511414,816.004211 818.579407,810.395935 
	C819.778748,809.562317 821.188782,809.031738 822.855469,808.316162 
	C813.518188,815.902344 803.863098,823.580261 794.104553,831.124268 
	C792.165527,832.623230 789.829529,833.608704 787.335693,834.910767 
z" data-index="28"></path>
<path fill="#9D8243" opacity="1.000000" stroke="none" d="
M513.029419,838.197510 
	C509.073914,838.053467 505.060303,838.293457 501.171936,837.705383 
	C465.762299,832.350342 431.341827,823.371277 399.121124,807.465820 
	C381.867340,798.948730 364.618866,790.125732 348.473175,779.725037 
	C320.824036,761.914124 295.949097,740.505737 274.350983,715.596008 
	C253.470200,691.513611 234.506119,666.017944 221.044678,636.903320 
	C214.137405,621.964111 207.727234,606.792236 201.256027,591.655518 
	C198.468369,585.134888 200.385696,578.675354 205.895218,574.258972 
	C213.976837,567.780762 223.503525,564.454102 233.136993,561.054932 
	C259.386078,551.792969 286.704559,547.852661 314.017883,543.568115 
	C352.585907,537.518250 391.389496,533.653564 430.337280,532.138855 
	C477.441772,530.306885 524.599487,529.304260 571.739807,529.067871 
	C631.748108,528.766907 691.699097,531.321350 751.371643,537.912903 
	C789.272644,542.099365 827.250000,546.532593 863.931030,557.626038 
	C875.482788,561.119629 886.770996,565.941101 897.551331,571.396790 
	C907.729004,576.547424 909.253113,584.408447 905.308350,595.050537 
	C894.607666,623.918457 880.902893,651.297424 863.744019,676.763306 
	C854.287292,690.798218 843.260925,703.831970 832.341736,716.812012 
	C814.876160,737.574097 794.390137,755.226135 772.285950,770.770996 
	C756.800537,781.661011 740.786133,792.110901 723.959961,800.705811 
	C701.156738,812.353882 677.203064,821.448669 652.309998,828.191711 
	C625.285400,835.512207 597.898254,839.469666 570.042175,840.364502 
	C555.427612,840.834045 540.777649,840.292969 526.146057,840.056885 
	C523.520630,840.014526 520.907043,839.233337 518.483154,838.447937 
	C523.459412,838.084961 528.240540,838.067322 533.454895,838.100464 
	C537.281189,838.221436 540.674255,838.291565 544.521851,838.462891 
	C560.982056,838.045715 576.987854,837.527283 593.420044,837.026855 
	C608.610962,834.584412 623.605652,833.049805 638.086975,829.450012 
	C660.676208,823.834656 682.676880,816.494263 704.042053,806.724915 
	C722.310425,798.371643 739.437378,788.378906 756.604309,778.202209 
	C773.049561,768.453247 787.376343,756.062195 801.622620,743.512939 
	C824.114746,723.699890 843.789734,701.295288 860.528931,676.542847 
	C877.064697,652.091187 889.986084,625.606201 900.625000,597.675659 
	C901.475464,595.327026 901.992126,593.201538 902.865479,591.234375 
	C905.461670,585.386169 904.303711,580.323730 899.349976,576.527161 
	C895.297607,573.421387 891.118164,569.866638 886.403564,568.350891 
	C869.792297,563.010376 853.134766,557.479431 836.103210,553.866821 
	C815.613342,549.520630 794.807800,546.311523 773.986328,543.963135 
	C743.567322,540.532166 713.050415,537.722717 682.504761,535.729614 
	C651.961670,533.736755 621.341248,532.470154 590.737488,531.997131 
	C559.949097,531.521118 529.128479,532.001160 498.342346,532.823364 
	C467.241211,533.653931 436.079468,534.408447 405.099945,537.033630 
	C367.827057,540.192078 330.574677,544.335144 293.593018,549.907349 
	C271.646362,553.214233 250.169418,559.834167 228.622162,565.500183 
	C219.926819,567.786743 211.396988,571.412720 205.730362,578.901611 
	C203.865036,581.366760 202.908478,585.364014 203.275711,588.454041 
	C203.707245,592.085144 206.031738,595.491272 207.621674,599.376221 
	C212.749008,611.503235 217.368439,623.452332 222.916473,634.953430 
	C235.466446,660.969971 251.088638,684.970276 270.018219,706.931274 
	C286.477020,726.025757 304.280426,743.666931 323.919769,759.340454 
	C353.285736,782.776428 385.806702,801.012451 420.817566,814.551941 
	C440.319550,822.093811 460.259430,828.513550 481.391602,832.036072 
	C486.769501,833.111084 491.775269,834.024109 496.771301,834.987366 
	C502.195374,836.033081 507.610443,837.125488 513.029419,838.197510 
z" data-index="29"></path>
<path fill="#653F03" opacity="1.000000" stroke="none" d="
M513.419739,838.245117 
	C507.610443,837.125488 502.195374,836.033081 496.771301,834.987366 
	C491.775269,834.024109 486.769501,833.111084 481.538574,831.721802 
	C483.037201,830.649658 484.775360,829.474854 486.491669,829.505920 
	C496.077087,829.679749 505.661774,830.539856 515.238159,830.428528 
	C534.801392,830.201050 554.365479,829.669556 573.916016,828.920288 
	C581.746399,828.620239 587.122559,833.179321 592.993591,837.008850 
	C576.987854,837.527283 560.982056,838.045715 544.493652,838.121948 
	C543.802795,834.062988 541.431213,833.153137 538.327393,833.066406 
	C534.872864,832.969849 533.244446,834.742920 533.021729,838.049683 
	C528.240540,838.067322 523.459412,838.084961 518.208679,838.225586 
	C516.429443,838.329895 515.119751,838.311340 513.419739,838.245117 
z" data-index="30"></path>
<path fill="#714306" opacity="1.000000" stroke="none" d="
M593.420044,837.026855 
	C587.122559,833.179321 581.746399,828.620239 573.916016,828.920288 
	C554.365479,829.669556 534.801392,830.201050 515.238159,830.428528 
	C505.661774,830.539856 496.077087,829.679749 486.491669,829.505920 
	C484.775360,829.474854 483.037201,830.649658 481.162170,831.581909 
	C460.259430,828.513550 440.319550,822.093811 420.817566,814.551941 
	C385.806702,801.012451 353.285736,782.776428 323.919769,759.340454 
	C304.280426,743.666931 286.477020,726.025757 270.018219,706.931274 
	C251.088638,684.970276 235.466446,660.969971 222.916473,634.953430 
	C217.368439,623.452332 212.749008,611.503235 207.994583,599.285217 
	C210.186447,599.121948 212.227921,599.093079 213.974167,599.796753 
	C222.921127,603.402222 231.524200,608.172607 240.750061,610.703979 
	C255.944977,614.873108 271.423187,618.249817 286.968018,620.847229 
	C309.916229,624.681824 332.952576,628.276733 356.087952,630.632446 
	C386.690125,633.748535 417.400360,635.966309 448.109619,637.814331 
	C470.520111,639.163025 493.002991,639.802612 515.455505,639.849365 
	C553.751038,639.929077 592.048706,639.352417 630.343933,638.917114 
	C638.988159,638.818909 647.636780,638.325317 656.264771,637.739502 
	C672.985596,636.604309 689.689270,635.219238 706.407532,634.043701 
	C718.184509,633.215637 730.057373,633.210754 741.740845,631.702454 
	C769.601929,628.105713 797.387024,623.910278 825.181641,619.813416 
	C844.803467,616.921265 863.891052,611.842163 882.479797,604.948792 
	C885.045898,603.997253 887.199829,601.938965 889.763489,600.975403 
	C893.215759,599.677917 896.880615,598.945862 900.454224,597.971130 
	C889.986084,625.606201 877.064697,652.091187 860.528931,676.542847 
	C843.789734,701.295288 824.114746,723.699890 801.622620,743.512939 
	C787.376343,756.062195 773.049561,768.453247 756.604309,778.202209 
	C739.437378,788.378906 722.310425,798.371643 704.042053,806.724915 
	C682.676880,816.494263 660.676208,823.834656 638.086975,829.450012 
	C623.605652,833.049805 608.610962,834.584412 593.420044,837.026855 
z" data-index="31" style="visibility: visible;"></path>
<path fill="#845218" opacity="1.000000" stroke="none" d="
M900.625000,597.675659 
	C896.880615,598.945862 893.215759,599.677917 889.763489,600.975403 
	C887.199829,601.938965 885.045898,603.997253 882.479797,604.948792 
	C863.891052,611.842163 844.803467,616.921265 825.181641,619.813416 
	C797.387024,623.910278 769.601929,628.105713 741.740845,631.702454 
	C730.057373,633.210754 718.184509,633.215637 706.407532,634.043701 
	C689.689270,635.219238 672.985596,636.604309 656.264771,637.739502 
	C647.636780,638.325317 638.988159,638.818909 630.343933,638.917114 
	C592.048706,639.352417 553.751038,639.929077 515.455505,639.849365 
	C493.002991,639.802612 470.520111,639.163025 448.109619,637.814331 
	C417.400360,635.966309 386.690125,633.748535 356.087952,630.632446 
	C332.952576,628.276733 309.916229,624.681824 286.968018,620.847229 
	C271.423187,618.249817 255.944977,614.873108 240.750061,610.703979 
	C231.524200,608.172607 222.921127,603.402222 213.974167,599.796753 
	C212.227921,599.093079 210.186447,599.121948 207.908234,598.903931 
	C206.031738,595.491272 203.707245,592.085144 203.275711,588.454041 
	C202.908478,585.364014 203.865036,581.366760 205.730362,578.901611 
	C211.396988,571.412720 219.926819,567.786743 228.622162,565.500183 
	C250.169418,559.834167 271.646362,553.214233 293.593018,549.907349 
	C330.574677,544.335144 367.827057,540.192078 405.099945,537.033630 
	C436.079468,534.408447 467.241211,533.653931 498.342346,532.823364 
	C529.128479,532.001160 559.949097,531.521118 590.737488,531.997131 
	C621.341248,532.470154 651.961670,533.736755 682.504761,535.729614 
	C713.050415,537.722717 743.567322,540.532166 773.986328,543.963135 
	C794.807800,546.311523 815.613342,549.520630 836.103210,553.866821 
	C853.134766,557.479431 869.792297,563.010376 886.403564,568.350891 
	C891.118164,569.866638 895.297607,573.421387 899.349976,576.527161 
	C904.303711,580.323730 905.461670,585.386169 902.865479,591.234375 
	C901.992126,593.201538 901.475464,595.327026 900.625000,597.675659 
z" data-index="32"></path>
<path fill="#714306" opacity="1.000000" stroke="none" d="
M533.454895,838.100464 
	C533.244446,834.742920 534.872864,832.969849 538.327393,833.066406 
	C541.431213,833.153137 543.802795,834.062988 544.039185,838.020752 
	C540.674255,838.291565 537.281189,838.221436 533.454895,838.100464 
z" data-index="33"></path>
</svg>